PathFileType	4	(X/Y/Z)	 static.trc
DataRate	CameraRate	NumFrames	NumMarkers	Units	OrigDataRate	OrigDataStartFrame	OrigNumFrames
200	200	8	43	m	200	142	377
Frame#	Time	C7			LSH			RSH			MAN			RASI			LASI			HIPR			HIPL			RPSI			LPSI			COX			RTHI1			RTHI2			RTHI3			RTHI4			RLKN			RMKN			RSHA1			RSHA2			RSHA3			RSHA4			RLMAL			RMMAL			RHEEL			RMET5			RMET1			RTOE			LTHI1			LTHI2			LTHI3			LTHI4			LLKN			LMKN			LSHA1			LSHA2			LSHA3			LSHA4			LLMAL			LMMAL			LHEEL			LMET5			LMET1			LTOE			
		X1	Y1	Z1	X2	Y2	Z2	X3	Y3	Z3	X4	Y4	Z4	X5	Y5	Z5	X6	Y6	Z6	X7	Y7	Z7	X8	Y8	Z8	X9	Y9	Z9	X10	Y10	Z10	X11	Y11	Z11	X12	Y12	Z12	X13	Y13	Z13	X14	Y14	Z14	X15	Y15	Z15	X16	Y16	Z16	X17	Y17	Z17	X18	Y18	Z18	X19	Y19	Z19	X20	Y20	Z20	X21	Y21	Z21	X22	Y22	Z22	X23	Y23	Z23	X24	Y24	Z24	X25	Y25	Z25	X26	Y26	Z26	X27	Y27	Z27	X28	Y28	Z28	X29	Y29	Z29	X30	Y30	Z30	X31	Y31	Z31	X32	Y32	Z32	X33	Y33	Z33	X34	Y34	Z34	X35	Y35	Z35	X36	Y36	Z36	X37	Y37	Z37	X38	Y38	Z38	X39	Y39	Z39	X40	Y40	Z40	X41	Y41	Z41	X42	Y42	Z42	X43	Y43	Z43	
142	0.7100	-0.392776	1.485979	-0.529379	-0.311957	1.468092	-0.731430	-0.287805	1.464911	-0.337343	-0.237444	1.450167	-0.541201	-0.184468	0.985471	-0.418298	-0.183288	0.991905	-0.657505	-0.274573	1.053862	-0.367485	-0.265433	1.060245	-0.704186	-0.365699	1.024420	-0.501780	-0.364422	1.030322	-0.577038	-0.364731	1.022917	-0.538583	-0.288259	0.810828	-0.350251	-0.279267	0.752539	-0.344806	-0.214805	0.761325	-0.341361	-0.217119	0.822479	-0.347710	-0.293974	0.475679	-0.369165	-0.271167	0.466279	-0.491634	-0.337699	0.317926	-0.348199	-0.351455	0.277969	-0.355548	-0.292256	0.265164	-0.360168	-0.282642	0.304281	-0.356816	-0.338354	0.093078	-0.377362	-0.314626	0.090731	-0.460543	-0.387033	0.064320	-0.418686	-0.215491	0.034361	-0.352080	-0.172424	0.051324	-0.427146	-0.141603	0.039698	-0.425083	-0.303669	0.786224	-0.717682	-0.283061	0.728058	-0.721229	-0.221191	0.744467	-0.730108	-0.233029	0.803902	-0.728104	-0.286584	0.490950	-0.698956	-0.271271	0.477863	-0.574362	-0.357470	0.271813	-0.705589	-0.365746	0.232556	-0.698075	-0.304164	0.224611	-0.706895	-0.304293	0.267989	-0.714064	-0.345015	0.088128	-0.696722	-0.317806	0.097901	-0.609366	-0.390912	0.054223	-0.646690	-0.220938	0.037816	-0.720803	-0.177908	0.053276	-0.646663	-0.145683	0.038701	-0.650135	
143	0.7150	-0.392821	1.486002	-0.529368	-0.312000	1.468121	-0.731429	-0.287817	1.464922	-0.337314	-0.237495	1.450172	-0.541202	-0.184515	0.985482	-0.418300	-0.183350	0.991916	-0.657496	-0.274681	1.053867	-0.367491	-0.265503	1.060248	-0.704184	-0.365700	1.024430	-0.501739	-0.364479	1.030323	-0.577062	-0.365714	1.023459	-0.539338	-0.288295	0.810827	-0.350264	-0.279312	0.752546	-0.344820	-0.214888	0.761356	-0.341397	-0.217195	0.822474	-0.347709	-0.293984	0.475647	-0.369163	-0.271215	0.466258	-0.491617	-0.337713	0.317932	-0.348168	-0.351496	0.277935	-0.355575	-0.292267	0.265144	-0.360181	-0.282662	0.304285	-0.356817	-0.338362	0.093069	-0.377353	-0.314630	0.090725	-0.460548	-0.387046	0.064327	-0.418680	-0.215493	0.034378	-0.352057	-0.172435	0.051308	-0.427122	-0.141610	0.039677	-0.425054	-0.303709	0.786230	-0.717704	-0.283101	0.728060	-0.721224	-0.221227	0.744470	-0.730102	-0.233059	0.803916	-0.728127	-0.286584	0.490940	-0.698954	-0.271299	0.477855	-0.574348	-0.357473	0.271830	-0.705598	-0.365725	0.232555	-0.698097	-0.304155	0.224610	-0.706899	-0.304292	0.268015	-0.714065	-0.345025	0.088119	-0.696720	-0.317822	0.097895	-0.609349	-0.390915	0.054235	-0.646713	-0.220932	0.037808	-0.720812	-0.177907	0.053283	-0.646654	-0.145689	0.038704	-0.650141	
144	0.7200	-0.392858	1.486019	-0.529366	-0.312026	1.468124	-0.731409	-0.287893	1.464913	-0.337328	-0.237544	1.450164	-0.541203	-0.184603	0.985503	-0.418315	-0.183408	0.991919	-0.657508	-0.274734	1.053857	-0.367499	-0.265553	1.060235	-0.704181	-0.365828	1.024419	-0.501812	-0.364552	1.030304	-0.577072	-0.364850	1.022888	-0.538584	-0.288357	0.810849	-0.350261	-0.279370	0.752545	-0.344830	-0.214930	0.761356	-0.341380	-0.217252	0.822487	-0.347680	-0.294002	0.475671	-0.369156	-0.271232	0.466264	-0.491603	-0.337728	0.317919	-0.348189	-0.351497	0.278005	-0.355493	-0.292305	0.265135	-0.360159	-0.282678	0.304274	-0.356824	-0.338357	0.093051	-0.377358	-0.314632	0.090732	-0.460528	-0.387046	0.064305	-0.418681	-0.215489	0.034381	-0.352066	-0.172445	0.051294	-0.427112	-0.141591	0.039706	-0.425080	-0.303741	0.786224	-0.717688	-0.283126	0.728060	-0.721224	-0.221251	0.744487	-0.730125	-0.233094	0.803923	-0.728142	-0.286595	0.490950	-0.698976	-0.271275	0.477863	-0.574355	-0.357468	0.271821	-0.705619	-0.365738	0.232539	-0.698071	-0.304168	0.224608	-0.706904	-0.304305	0.267987	-0.714066	-0.345030	0.088119	-0.696712	-0.317789	0.097906	-0.609359	-0.390897	0.054218	-0.646688	-0.220943	0.037802	-0.720808	-0.177910	0.053280	-0.646654	-0.145684	0.038704	-0.650133	
145	0.7250	-0.392897	1.486015	-0.529360	-0.312083	1.468126	-0.731406	-0.287951	1.464912	-0.337306	-0.237555	1.450164	-0.541174	-0.184661	0.985519	-0.418310	-0.183468	0.991933	-0.657506	-0.274802	1.053852	-0.367503	-0.265642	1.060246	-0.704185	-0.365831	1.024411	-0.501743	-0.364607	1.030303	-0.577090	-0.365896	1.023476	-0.539383	-0.288408	0.810804	-0.350299	-0.279407	0.752547	-0.344838	-0.214974	0.761390	-0.341394	-0.217318	0.822521	-0.347680	-0.294046	0.475673	-0.369166	-0.271231	0.466267	-0.491611	-0.337746	0.317912	-0.348223	-0.351527	0.277986	-0.355499	-0.292295	0.265148	-0.360161	-0.282695	0.304284	-0.356797	-0.338358	0.093052	-0.377359	-0.314628	0.090724	-0.460536	-0.387048	0.064306	-0.418680	-0.215482	0.034380	-0.352063	-0.172435	0.051320	-0.427121	-0.141608	0.039686	-0.425071	-0.303796	0.786209	-0.717706	-0.283180	0.728087	-0.721234	-0.221305	0.744487	-0.730112	-0.233131	0.803922	-0.728151	-0.286611	0.490943	-0.698968	-0.271270	0.477882	-0.574384	-0.357478	0.271796	-0.705604	-0.365749	0.232553	-0.698099	-0.304169	0.224609	-0.706887	-0.304306	0.267995	-0.714078	-0.345015	0.088092	-0.696721	-0.317789	0.097906	-0.609359	-0.390910	0.054236	-0.646674	-0.220945	0.037808	-0.720811	-0.177904	0.053289	-0.646660	-0.145687	0.038704	-0.650135	
146	0.7300	-0.392943	1.486045	-0.529340	-0.312117	1.468130	-0.731395	-0.287983	1.464916	-0.337301	-0.237644	1.450146	-0.541204	-0.184742	0.985536	-0.418322	-0.183526	0.991946	-0.657510	-0.274909	1.053849	-0.367493	-0.265711	1.060234	-0.704174	-0.365917	1.024402	-0.501774	-0.364673	1.030298	-0.577097	-0.365941	1.023442	-0.539395	-0.288451	0.810851	-0.350270	-0.279452	0.752536	-0.344854	-0.215015	0.761339	-0.341376	-0.217360	0.822525	-0.347679	-0.294078	0.475678	-0.369157	-0.271250	0.466268	-0.491602	-0.337744	0.317895	-0.348205	-0.351535	0.278009	-0.355447	-0.292316	0.265148	-0.360153	-0.282723	0.304280	-0.356812	-0.338378	0.093054	-0.377346	-0.314601	0.090765	-0.460594	-0.387030	0.064303	-0.418683	-0.215501	0.034368	-0.352045	-0.172445	0.051322	-0.427125	-0.141608	0.039692	-0.425068	-0.303820	0.786216	-0.717715	-0.283197	0.728067	-0.721249	-0.221331	0.744504	-0.730133	-0.233170	0.803950	-0.728162	-0.286614	0.490949	-0.698979	-0.271254	0.477941	-0.574441	-0.357484	0.271802	-0.705617	-0.365751	0.232528	-0.698097	-0.304177	0.224619	-0.706910	-0.304306	0.267995	-0.714078	-0.345027	0.088099	-0.696712	-0.317829	0.097883	-0.609359	-0.390912	0.054233	-0.646709	-0.220945	0.037808	-0.720805	-0.177919	0.053291	-0.646665	-0.145688	0.038704	-0.650146	
147	0.7350	-0.392984	1.486045	-0.529345	-0.312164	1.468147	-0.731393	-0.288020	1.464921	-0.337292	-0.237704	1.450153	-0.541176	-0.184786	0.985543	-0.418335	-0.183576	0.991958	-0.657525	-0.274998	1.053875	-0.367512	-0.265761	1.060248	-0.704186	-0.365979	1.024406	-0.501779	-0.364737	1.030278	-0.577095	-0.365998	1.023434	-0.539382	-0.288509	0.810846	-0.350309	-0.279495	0.752558	-0.344840	-0.215070	0.761412	-0.341391	-0.217438	0.822551	-0.347700	-0.294118	0.475689	-0.369165	-0.271252	0.466266	-0.491593	-0.337789	0.317906	-0.348172	-0.351548	0.277973	-0.355498	-0.292336	0.265122	-0.360159	-0.282737	0.304279	-0.356811	-0.338379	0.093070	-0.377358	-0.314637	0.090721	-0.460511	-0.387038	0.064292	-0.418652	-0.215496	0.034380	-0.352054	-0.172448	0.051301	-0.427113	-0.141611	0.039697	-0.425081	-0.303857	0.786214	-0.717732	-0.283234	0.728064	-0.721240	-0.221367	0.744514	-0.730121	-0.233201	0.803954	-0.728162	-0.286612	0.490954	-0.698990	-0.271311	0.477858	-0.574389	-0.357484	0.271802	-0.705617	-0.365758	0.232555	-0.698123	-0.304178	0.224609	-0.706912	-0.304291	0.268004	-0.714100	-0.345015	0.088099	-0.696728	-0.317817	0.097873	-0.609361	-0.390903	0.054243	-0.646695	-0.220939	0.037807	-0.720819	-0.177922	0.053281	-0.646661	-0.145684	0.038704	-0.650137	
148	0.7400	-0.393027	1.486064	-0.529336	-0.312215	1.468141	-0.731384	-0.288044	1.464926	-0.337295	-0.237701	1.450154	-0.541177	-0.184890	0.985590	-0.418305	-0.183630	0.991961	-0.657534	-0.275062	1.053859	-0.367525	-0.265839	1.060248	-0.704166	-0.366066	1.024398	-0.501781	-0.364797	1.030274	-0.577122	-0.366123	1.023460	-0.539440	-0.288576	0.810853	-0.350334	-0.279537	0.752557	-0.344851	-0.215115	0.761414	-0.341375	-0.217488	0.822537	-0.347695	-0.294117	0.475689	-0.369166	-0.271279	0.466267	-0.491587	-0.337787	0.317892	-0.348168	-0.351568	0.278029	-0.355441	-0.292328	0.265157	-0.360154	-0.282715	0.304294	-0.356774	-0.338364	0.093058	-0.377336	-0.314638	0.090718	-0.460514	-0.387044	0.064302	-0.418686	-0.215484	0.034364	-0.352061	-0.172442	0.051303	-0.427089	-0.141611	0.039685	-0.425070	-0.303891	0.786210	-0.717742	-0.283265	0.728068	-0.721238	-0.221400	0.744512	-0.730120	-0.233245	0.803958	-0.728169	-0.286634	0.490954	-0.699000	-0.271300	0.477880	-0.574411	-0.357498	0.271802	-0.705616	-0.365755	0.232565	-0.698123	-0.304189	0.224620	-0.706912	-0.304325	0.267987	-0.714093	-0.345023	0.088097	-0.696728	-0.317796	0.097902	-0.609382	-0.390912	0.054221	-0.646689	-0.220947	0.037811	-0.720803	-0.177905	0.053294	-0.646666	-0.145691	0.038709	-0.650145	
149	0.7450	-0.393066	1.486076	-0.529329	-0.312274	1.468173	-0.731394	-0.288097	1.464923	-0.337287	-0.237801	1.450136	-0.541178	-0.184968	0.985594	-0.418335	-0.183675	0.991979	-0.657550	-0.275131	1.053854	-0.367530	-0.265889	1.060262	-0.704175	-0.366207	1.024374	-0.501854	-0.364866	1.030266	-0.577135	-0.365359	1.022968	-0.538791	-0.288615	0.810842	-0.350346	-0.279599	0.752571	-0.344863	-0.215169	0.761384	-0.341373	-0.217531	0.822544	-0.347727	-0.294143	0.475703	-0.369164	-0.271285	0.466260	-0.491589	-0.337792	0.317909	-0.348187	-0.351551	0.278017	-0.355461	-0.292364	0.265128	-0.360156	-0.282749	0.304263	-0.356856	-0.338364	0.093065	-0.377318	-0.314598	0.090779	-0.460570	-0.387055	0.064292	-0.418654	-0.215486	0.034380	-0.352061	-0.172452	0.051333	-0.427120	-0.141635	0.039675	-0.425062	-0.303940	0.786207	-0.717751	-0.283297	0.728059	-0.721249	-0.221442	0.744528	-0.730123	-0.233270	0.803955	-0.728171	-0.286652	0.490954	-0.699008	-0.271291	0.477937	-0.574426	-0.357499	0.271795	-0.705618	-0.365756	0.232539	-0.698123	-0.304190	0.224607	-0.706906	-0.304330	0.268009	-0.714106	-0.345019	0.088088	-0.696733	-0.317790	0.097878	-0.609369	-0.390909	0.054221	-0.646694	-0.220953	0.037800	-0.720804	-0.177912	0.053279	-0.646668	-0.145706	0.038700	-0.650129	
